<?xml version="1.0" encoding="UTF-8" standalone="no" ?>
<!DOCTYPE svg PUBLIC "-//W3C//DTD SVG 1.1//EN" "http://www.w3.org/Graphics/SVG/1.1/DTD/svg11.dtd">
<svg xmlns="http://www.w3.org/2000/svg" xmlns:xlink="http://www.w3.org/1999/xlink" version="1.1" width="1080" height="1080" viewBox="0 0 1080 1080" xml:space="preserve">
<desc>Created with Fabric.js 5.2.4</desc>
<defs>
</defs>
<rect x="0" y="0" width="100%" height="100%" fill="transparent"></rect>
<g transform="matrix(1 0 0 1 540 540)" id="d3d5d5e8-67a5-41e3-9b47-43a69953c6a4"  >
<rect style="stroke: none; stroke-width: 1; stroke-dasharray: none; stroke-linecap: butt; stroke-dashoffset: 0; stroke-linejoin: miter; stroke-miterlimit: 4; fill: rgb(255,255,255); fill-rule: nonzero; opacity: 1; visibility: hidden;" vector-effect="non-scaling-stroke"  x="-540" y="-540" rx="0" ry="0" width="1080" height="1080" />
</g>
<g transform="matrix(1 0 0 1 540 540)" id="bfc66b3d-ecef-4225-8338-9d68d96c58ba"  >
</g>
<g transform="matrix(1 0 0 1 369.38 570.15)" clip-path="url(#CLIPPATH_4)"  >
<clipPath id="CLIPPATH_4" >
	<rect transform="matrix(0.71 -0.71 0.71 0.71 2.55 -2.54)" id="clip1_14_9" clip-path="url(#undefined)" x="-26" y="-26" rx="0" ry="0" width="52" height="52" />
</clipPath>
<path style="stroke: none; stroke-width: 1; stroke-dasharray: none; stroke-linecap: butt; stroke-dashoffset: 0; stroke-linejoin: miter; stroke-miterlimit: 4; fill: rgb(58,120,201); fill-rule: nonzero; opacity: 1;" vector-effect="non-scaling-stroke"  transform=" translate(-25.45, -26.54)" d="M 37.9551 43.9202 L 36.0433 45.8319 C 35.8512 46.024 35.614 46.1647 35.3534 46.2414 C 35.0927 46.3181 34.8171 46.3282 34.5515 46.2709 C 34.286 46.2135 34.0391 46.0905 33.8334 45.9131 C 33.6277 45.7356 33.4697 45.5095 33.374 45.2552 L 27.7874 30.4103 L 20.682 37.2069 L 21.2185 42.8135 C 21.3427 43.9044 21.2278 44.5608 20.2439 45.5447 L 18.957 46.8316 C 18.7598 47.0419 18.5148 47.2016 18.2428 47.2971 C 17.9707 47.3926 17.6797 47.4211 17.3943 47.3803 C 16.9928 47.3207 16.4341 47.098 16.0406 46.377 L 12.365 39.8547 C 12.3378 39.8059 12.3126 39.7549 12.2896 39.7032 C 12.2868 39.6989 12.2831 39.6953 12.2789 39.6924 C 12.2267 39.6699 12.1759 39.6445 12.1266 39.6163 L 5.57058 35.9099 C 4.86966 35.5178 4.65637 34.967 4.60107 34.5727 C 4.56386 34.3079 4.58932 34.038 4.67538 33.7848 C 4.76144 33.5316 4.90571 33.3021 5.0966 33.1148 L 6.45534 31.7561 C 7.19002 31.0214 8.23278 30.6379 9.18433 30.7507 L 14.6868 31.2878 L 21.5725 24.1953 L 6.74691 18.6253 C 6.49266 18.5298 6.26642 18.372 6.08887 18.1665 C 5.91132 17.9609 5.78812 17.7141 5.73055 17.4487 C 5.67297 17.1832 5.68285 16.9076 5.75929 16.6469 C 5.83572 16.3863 5.97627 16.149 6.16808 15.9567 L 8.10064 14.0241 C 8.37567 13.7599 8.70668 13.5611 9.06909 13.4423 C 9.43151 13.3236 9.81601 13.288 10.1941 13.3383 L 30.0905 15.2737 L 34.1302 11.0158 C 34.4174 10.6955 35.2534 9.84804 35.448 9.65342 C 39.4187 5.68705 43.0769 4.60551 45.2357 6.76428 C 45.9151 7.44366 46.9033 8.97477 45.8885 11.5924 C 45.2903 13.1386 44.0996 14.8091 42.3502 16.5585 C 42.1577 16.751 41.3124 17.5847 40.9878 17.8763 L 36.7292 21.9138 L 38.6423 41.8325 C 38.6915 42.2098 38.6553 42.5932 38.5363 42.9546 C 38.4173 43.3159 38.2187 43.6459 37.9551 43.9202 L 37.9551 43.9202 Z" stroke-linecap="round" />
</g>
<g transform="matrix(0.62 0 0 0.62 540 572.89)" style="" id="3d5fe046-bac8-4abd-946a-70cde89a70c9"  >
		<text xml:space="preserve" font-family="Raleway" font-size="105" font-style="normal" font-weight="900" style="stroke: none; stroke-width: 1; stroke-dasharray: none; stroke-linecap: butt; stroke-dashoffset: 0; stroke-linejoin: miter; stroke-miterlimit: 4; fill: rgb(58,120,201); fill-rule: nonzero; opacity: 1; white-space: pre;" ><tspan x="-231.84" y="32.98" >DestiNex</tspan></text>
</g>
</svg>