<?xml version="1.0" encoding="UTF-8"?>
<!DOCTYPE svg PUBLIC "-//W3C//DTD SVG 1.1//EN" "http://www.w3.org/Graphics/SVG/1.1/DTD/svg11.dtd">
<svg xmlns="http://www.w3.org/2000/svg" version="1.1" width="454px" height="112px" style="shape-rendering:geometricPrecision; text-rendering:geometricPrecision; image-rendering:optimizeQuality; fill-rule:evenodd; clip-rule:evenodd" xmlns:xlink="http://www.w3.org/1999/xlink">
<g><path style="opacity:1" fill="#3c79c9" d="M 264.5,26.5 C 268.167,26.5 271.833,26.5 275.5,26.5C 275.5,29.5 275.5,32.5 275.5,35.5C 271.833,35.5 268.167,35.5 264.5,35.5C 264.5,32.5 264.5,29.5 264.5,26.5 Z"/></g>
<g><path style="opacity:1" fill="#4e81cd" d="M 134.5,34.5 C 134.427,36.0269 135.094,37.0269 136.5,37.5C 140.145,41.7076 141.811,46.7076 141.5,52.5C 141.374,64.9504 135.374,72.7837 123.5,76C 114.173,76.4998 104.839,76.6665 95.5,76.5C 95.5,60.5 95.5,44.5 95.5,28.5C 104.839,28.3335 114.173,28.5002 123.5,29C 127.741,29.7873 131.408,31.6207 134.5,34.5 Z M 117.5,38.5 C 127.309,42.6854 130.309,50.0187 126.5,60.5C 124.833,61.5 123.5,62.8333 122.5,64.5C 120.597,64.7959 118.93,65.4625 117.5,66.5C 114.833,66.5 112.167,66.5 109.5,66.5C 109.5,57.1667 109.5,47.8333 109.5,38.5C 112.167,38.5 114.833,38.5 117.5,38.5 Z"/></g>
<g><path style="opacity:0.031" fill="#f4f7fb" d="M 300.5,28.5 C 295.833,28.5 291.167,28.5 286.5,28.5C 286.5,44.5 286.5,60.5 286.5,76.5C 285.504,60.3419 285.17,44.0085 285.5,27.5C 290.695,27.1795 295.695,27.5128 300.5,28.5 Z"/></g>
<g><path style="opacity:1" fill="#417bca" d="M 300.5,28.5 C 305.895,37.9137 310.895,47.5803 315.5,57.5C 315.987,58.4734 316.487,59.4734 317,60.5C 317.5,49.8385 317.667,39.1719 317.5,28.5C 321.167,28.5 324.833,28.5 328.5,28.5C 328.5,44.5 328.5,60.5 328.5,76.5C 323.57,76.8025 318.737,76.4692 314,75.5C 309.14,65.7802 304.307,56.1136 299.5,46.5C 299.539,45.2438 299.039,44.2438 298,43.5C 297.5,54.495 297.333,65.495 297.5,76.5C 293.833,76.5 290.167,76.5 286.5,76.5C 286.5,60.5 286.5,44.5 286.5,28.5C 291.167,28.5 295.833,28.5 300.5,28.5 Z"/></g>
<g><path style="opacity:0.094" fill="#cfddf2" d="M 328.5,76.5 C 328.5,60.5 328.5,44.5 328.5,28.5C 324.833,28.5 321.167,28.5 317.5,28.5C 317.667,39.1719 317.5,49.8385 317,60.5C 316.487,59.4734 315.987,58.4734 315.5,57.5C 316.494,47.6806 316.827,37.6806 316.5,27.5C 320.833,27.5 325.167,27.5 329.5,27.5C 329.83,44.0085 329.496,60.3419 328.5,76.5 Z"/></g>
<g><path style="opacity:0.486" fill="#a1bee5" d="M 245.5,30.5 C 241.833,30.5 238.167,30.5 234.5,30.5C 234.813,34.0419 234.479,37.3752 233.5,40.5C 233.5,36.8333 233.5,33.1667 233.5,29.5C 237.702,29.1832 241.702,29.5166 245.5,30.5 Z"/></g>
<g><path style="opacity:1" fill="#427bca" d="M 245.5,30.5 C 245.5,33.8333 245.5,37.1667 245.5,40.5C 249.5,40.5 253.5,40.5 257.5,40.5C 257.5,43.5 257.5,46.5 257.5,49.5C 253.5,49.5 249.5,49.5 245.5,49.5C 245.334,54.8437 245.501,60.1771 246,65.5C 246.278,66.4158 246.778,67.0825 247.5,67.5C 249.948,68.4731 252.615,68.8064 255.5,68.5C 255.5,71.1667 255.5,73.8333 255.5,76.5C 250.156,76.666 244.823,76.4994 239.5,76C 236.466,74.8088 234.799,72.6421 234.5,69.5C 234.5,62.5 234.5,55.5 234.5,48.5C 232.5,48.5 230.5,48.5 228.5,48.5C 228.5,45.8333 228.5,43.1667 228.5,40.5C 230.167,40.5 231.833,40.5 233.5,40.5C 234.479,37.3752 234.813,34.0419 234.5,30.5C 238.167,30.5 241.833,30.5 245.5,30.5 Z"/></g>
<g><path style="opacity:0.69" fill="#9fbae4" d="M 83.5,33.5 C 81.0971,33.448 78.7638,33.7814 76.5,34.5C 77.3121,33.0069 78.6455,32.3402 80.5,32.5C 81.7261,32.5195 82.7261,32.8529 83.5,33.5 Z"/></g>
<g><path style="opacity:1" fill="#5384ce" d="M 83.5,33.5 C 85.3769,34.6591 85.8769,36.3258 85,38.5C 82.2029,42.9616 79.0362,47.1283 75.5,51C 76.3634,56.2983 77.0301,61.6316 77.5,67C 78.0331,71.9773 76.0331,73.8106 71.5,72.5C 69.5687,67.8729 67.7353,63.2062 66,58.5C 64,60.5 62,62.5 60,64.5C 59.8446,66.856 59.8446,69.1893 60,71.5C 59.5917,73.4096 58.4251,74.4096 56.5,74.5C 52.8532,69.857 48.5199,65.857 43.5,62.5C 43.5106,60.9826 44.1772,59.8159 45.5,59C 48.3647,58.8171 51.0314,58.3171 53.5,57.5C 54.9599,55.5372 56.6266,53.7038 58.5,52C 54.0317,49.6189 49.365,47.6189 44.5,46C 43.3398,42.6031 44.6731,40.4364 48.5,39.5C 53.1417,40.2978 57.8084,40.9644 62.5,41.5C 67.8896,43.856 71.5563,42.1893 73.5,36.5C 75.0269,36.573 76.0269,35.9063 76.5,34.5C 78.7638,33.7814 81.0971,33.448 83.5,33.5 Z"/></g>
<g><path style="opacity:0.745" fill="#a3bde5" d="M 76.5,34.5 C 76.0269,35.9063 75.0269,36.573 73.5,36.5C 73.9731,35.0937 74.9731,34.427 76.5,34.5 Z"/></g>
<g><path style="opacity:0.643" fill="#b7cbea" d="M 134.5,34.5 C 135.906,34.9731 136.573,35.9731 136.5,37.5C 135.094,37.0269 134.427,36.0269 134.5,34.5 Z"/></g>
<g><path style="opacity:0.424" fill="#a8c3e7" d="M 264.5,26.5 C 264.5,29.5 264.5,32.5 264.5,35.5C 268.167,35.5 271.833,35.5 275.5,35.5C 271.702,36.4834 267.702,36.8168 263.5,36.5C 263.187,32.9581 263.521,29.6248 264.5,26.5 Z"/></g>
<g><path style="opacity:0.22" fill="#c4d6ee" d="M 117.5,38.5 C 114.833,38.5 112.167,38.5 109.5,38.5C 109.5,47.8333 109.5,57.1667 109.5,66.5C 112.167,66.5 114.833,66.5 117.5,66.5C 114.713,67.4767 111.713,67.81 108.5,67.5C 108.5,57.5 108.5,47.5 108.5,37.5C 111.713,37.19 114.713,37.5233 117.5,38.5 Z"/></g>
<g><path style="opacity:1" fill="#5283ce" d="M 181.5,66.5 C 183.369,68.6353 184.036,71.3019 183.5,74.5C 178.729,76.8851 173.563,77.8851 168,77.5C 150.459,76.7945 143.792,67.7945 148,50.5C 150.256,45.2425 154.09,41.7425 159.5,40C 177.67,36.6752 186.336,44.1752 185.5,62.5C 176.827,62.3336 168.16,62.5002 159.5,63C 161.307,67.4094 164.64,69.576 169.5,69.5C 173.597,68.8092 177.597,67.8092 181.5,66.5 Z M 164.5,47.5 C 169.006,47.2522 172.006,49.2522 173.5,53.5C 168.833,54.8333 164.167,54.8333 159.5,53.5C 160.497,50.845 162.164,48.845 164.5,47.5 Z"/></g>
<g><path style="opacity:1" fill="#5284ce" d="M 218.5,40.5 C 219.209,41.404 220.209,41.7373 221.5,41.5C 222.036,44.6981 221.369,47.3647 219.5,49.5C 215.846,48.8362 212.18,48.1695 208.5,47.5C 205.378,47.38 203.378,48.7133 202.5,51.5C 202.821,53.0481 203.821,53.7148 205.5,53.5C 211.331,53.2908 216.664,54.6242 221.5,57.5C 221.427,59.0269 222.094,60.0269 223.5,60.5C 226.51,68.3012 224.176,73.8012 216.5,77C 208.768,77.8561 201.102,77.5228 193.5,76C 191.656,73.1963 190.989,70.0297 191.5,66.5C 196.299,67.574 201.133,68.574 206,69.5C 207.878,69.3038 209.712,68.9705 211.5,68.5C 212.586,68.38 213.253,67.7133 213.5,66.5C 213.457,65.5836 213.124,64.9169 212.5,64.5C 206.743,63.4273 201.076,61.9273 195.5,60C 189.938,53.3799 190.272,47.0466 196.5,41C 203.832,39.2397 211.165,39.0731 218.5,40.5 Z"/></g>
<g><path style="opacity:1" fill="#5283ce" d="M 372.5,66.5 C 374.369,68.6353 375.036,71.3019 374.5,74.5C 369.729,76.8851 364.563,77.8851 359,77.5C 341.459,76.7945 334.792,67.7945 339,50.5C 341.256,45.2425 345.09,41.7425 350.5,40C 368.67,36.6752 377.336,44.1752 376.5,62.5C 367.827,62.3336 359.16,62.5002 350.5,63C 352.307,67.4094 355.64,69.576 360.5,69.5C 364.597,68.8092 368.597,67.8092 372.5,66.5 Z M 355.5,47.5 C 360.006,47.2522 363.006,49.2522 364.5,53.5C 359.833,54.8333 355.167,54.8333 350.5,53.5C 351.497,50.845 353.164,48.845 355.5,47.5 Z"/></g>
<g><path style="opacity:0.125" fill="#e8eff8" d="M 393.5,40.5 C 389.298,40.1832 385.298,40.5166 381.5,41.5C 380.957,41.44 380.624,41.1067 380.5,40.5C 384.984,39.1889 389.317,39.1889 393.5,40.5 Z"/></g>
<g><path style="opacity:0.125" fill="#e8eff8" d="M 407.5,40.5 C 411.683,39.1889 416.016,39.1889 420.5,40.5C 420.376,41.1067 420.043,41.44 419.5,41.5C 415.702,40.5166 411.702,40.1832 407.5,40.5 Z"/></g>
<g><path style="opacity:0.141" fill="#cadaf0" d="M 228.5,40.5 C 228.5,43.1667 228.5,45.8333 228.5,48.5C 230.5,48.5 232.5,48.5 234.5,48.5C 234.5,55.5 234.5,62.5 234.5,69.5C 233.509,63.021 233.176,56.3543 233.5,49.5C 231.5,49.5 229.5,49.5 227.5,49.5C 227.19,46.2869 227.523,43.2869 228.5,40.5 Z"/></g>
<g><path style="opacity:1" fill="#3c79c9" d="M 264.5,40.5 C 268.167,40.5 271.833,40.5 275.5,40.5C 275.5,52.5 275.5,64.5 275.5,76.5C 271.833,76.5 268.167,76.5 264.5,76.5C 264.5,64.5 264.5,52.5 264.5,40.5 Z"/></g>
<g><path style="opacity:1" fill="#4f82cd" d="M 393.5,40.5 C 393.427,42.0269 394.094,43.0269 395.5,43.5C 395.427,45.0269 396.094,46.0269 397.5,46.5C 397.427,48.0269 398.094,49.0269 399.5,49.5C 401.03,48.7888 402.363,47.7888 403.5,46.5C 404.906,46.0269 405.573,45.0269 405.5,43.5C 406.906,43.0269 407.573,42.0269 407.5,40.5C 411.702,40.1832 415.702,40.5166 419.5,41.5C 415.718,47.1218 411.718,52.6218 407.5,58C 412.026,63.6923 416.359,69.5257 420.5,75.5C 416.205,76.6609 411.871,76.8275 407.5,76C 405.045,72.9223 402.711,69.7556 400.5,66.5C 398.289,69.7556 395.955,72.9223 393.5,76C 389.129,76.8275 384.795,76.6609 380.5,75.5C 384.641,69.5257 388.974,63.6923 393.5,58C 389.282,52.6218 385.282,47.1218 381.5,41.5C 385.298,40.5166 389.298,40.1832 393.5,40.5 Z"/></g>
<g><path style="opacity:0.612" fill="#b0c7e8" d="M 73.5,36.5 C 71.5563,42.1893 67.8896,43.856 62.5,41.5C 64.5273,41.6621 66.5273,41.4955 68.5,41C 70.0375,39.2927 71.7041,37.7927 73.5,36.5 Z"/></g>
<g><path style="opacity:0.282" fill="#c9daf0" d="M 218.5,40.5 C 219.833,40.5 221.167,40.5 222.5,40.5C 222.5,43.8333 222.5,47.1667 222.5,50.5C 221.209,50.7373 220.209,50.404 219.5,49.5C 221.369,47.3647 222.036,44.6981 221.5,41.5C 220.209,41.7373 219.209,41.404 218.5,40.5 Z"/></g>
<g><path style="opacity:0.459" fill="#b3c9ea" d="M 393.5,40.5 C 394.906,40.9731 395.573,41.9731 395.5,43.5C 394.094,43.0269 393.427,42.0269 393.5,40.5 Z"/></g>
<g><path style="opacity:0.498" fill="#aec5e8" d="M 407.5,40.5 C 407.573,42.0269 406.906,43.0269 405.5,43.5C 405.427,41.9731 406.094,40.9731 407.5,40.5 Z"/></g>
<g><path style="opacity:0.58" fill="#8eb1e0" d="M 299.5,46.5 C 298.833,56.5 298.167,66.5 297.5,76.5C 297.333,65.495 297.5,54.495 298,43.5C 299.039,44.2438 299.539,45.2438 299.5,46.5 Z"/></g>
<g><path style="opacity:0.498" fill="#aec5e8" d="M 395.5,43.5 C 396.906,43.9731 397.573,44.9731 397.5,46.5C 396.094,46.0269 395.427,45.0269 395.5,43.5 Z"/></g>
<g><path style="opacity:0.561" fill="#a6bfe6" d="M 405.5,43.5 C 405.573,45.0269 404.906,46.0269 403.5,46.5C 403.427,44.9731 404.094,43.9731 405.5,43.5 Z"/></g>
<g><path style="opacity:0.541" fill="#a8c0e6" d="M 397.5,46.5 C 398.906,46.9731 399.573,47.9731 399.5,49.5C 398.094,49.0269 397.427,48.0269 397.5,46.5 Z"/></g>
<g><path style="opacity:0.863" fill="#a7bfe5" d="M 202.5,51.5 C 203.71,51.9321 204.71,52.5987 205.5,53.5C 203.821,53.7148 202.821,53.0481 202.5,51.5 Z"/></g>
<g><path style="opacity:0.702" fill="#b0c7e9" d="M 53.5,57.5 C 51.0314,58.3171 48.3647,58.8171 45.5,59C 44.1772,59.8159 43.5106,60.9826 43.5,62.5C 42.2006,60.8466 42.5339,59.3466 44.5,58C 47.4816,57.502 50.4816,57.3354 53.5,57.5 Z"/></g>
<g><path style="opacity:0.333" fill="#c3d4ee" d="M 221.5,57.5 C 222.906,57.9731 223.573,58.9731 223.5,60.5C 222.094,60.0269 221.427,59.0269 221.5,57.5 Z"/></g>
<g><path style="opacity:0.655" fill="#a8c0e6" d="M 126.5,60.5 C 126.167,62.8333 124.833,64.1667 122.5,64.5C 123.5,62.8333 124.833,61.5 126.5,60.5 Z"/></g>
<g><path style="opacity:0.314" fill="#c2d5ee" d="M 183.5,74.5 C 184.036,71.3019 183.369,68.6353 181.5,66.5C 182.172,65.7326 183.005,65.0659 184,64.5C 184.808,68.0267 184.641,71.3601 183.5,74.5 Z"/></g>
<g><path style="opacity:0.314" fill="#c2d5ee" d="M 374.5,74.5 C 375.036,71.3019 374.369,68.6353 372.5,66.5C 373.172,65.7326 374.005,65.0659 375,64.5C 375.808,68.0267 375.641,71.3601 374.5,74.5 Z"/></g>
<g><path style="opacity:0.773" fill="#afc5e8" d="M 212.5,64.5 C 213.124,64.9169 213.457,65.5836 213.5,66.5C 213.253,67.7133 212.586,68.38 211.5,68.5C 212.234,67.2921 212.567,65.9587 212.5,64.5 Z"/></g>
<g><path style="opacity:0.643" fill="#99b8e3" d="M 247.5,67.5 C 250.5,67.5 253.5,67.5 256.5,67.5C 256.81,70.7131 256.477,73.7131 255.5,76.5C 255.5,73.8333 255.5,71.1667 255.5,68.5C 252.615,68.8064 249.948,68.4731 247.5,67.5 Z"/></g>
<g><path style="opacity:0.125" fill="#c5d6ee" d="M 264.5,40.5 C 264.5,52.5 264.5,64.5 264.5,76.5C 268.167,76.5 271.833,76.5 275.5,76.5C 271.702,77.4834 267.702,77.8168 263.5,77.5C 263.171,64.9887 263.505,52.6554 264.5,40.5 Z"/></g>
</svg>
